<?xml version="1.0" standalone="no"?>
<!DOCTYPE svg PUBLIC "-//W3C//DTD SVG 20010904//EN"
 "http://www.w3.org/TR/2001/REC-SVG-20010904/DTD/svg10.dtd">
<svg version="1.0" xmlns="http://www.w3.org/2000/svg"
 width="558.000000pt" height="558.000000pt" viewBox="0 0 558.000000 558.000000"
 preserveAspectRatio="xMidYMid meet">
<metadata>
Created by potrace 1.11, written by Peter Selinger 2001-2013
</metadata>
<g transform="translate(0.000000,558.000000) scale(0.100000,-0.100000)"
fill="#000000" stroke="none">
<path d="M2617 4715 c-1 -1 -47 -5 -102 -9 -111 -6 -129 -9 -265 -37 -124 -25
-268 -70 -405 -126 -104 -42 -337 -159 -415 -208 -219 -138 -386 -256 -575
-408 -111 -90 -248 -207 -241 -207 2 0 138 80 303 179 359 215 534 313 697
391 176 84 362 156 481 186 17 4 35 8 40 10 168 48 492 72 700 51 242 -23 516
-88 774 -183 124 -46 472 -217 675 -333 87 -50 161 -91 163 -91 3 0 24 -13 48
-30 24 -16 46 -30 48 -30 9 0 151 -82 172 -99 18 -15 19 -15 6 1 -20 26 -325
252 -487 360 -457 307 -919 509 -1269 554 -22 3 -46 7 -54 10 -8 3 -60 7 -115
10 -56 3 -118 7 -139 8 -20 1 -38 2 -40 1z"/>
<path d="M2519 4005 c-111 -40 -183 -107 -219 -203 -77 -205 87 -422 320 -423
132 -1 259 80 313 199 29 66 28 180 -2 243 -57 121 -164 190 -299 195 -45 1
-92 -3 -113 -11z"/>
<path d="M2381 2549 c-47 -9 -102 -45 -128 -85 -23 -36 -25 -113 -3 -161 23
-52 64 -83 170 -128 92 -39 115 -55 136 -97 53 -103 -50 -210 -170 -177 -36
10 -96 69 -96 94 0 19 -14 19 -51 -1 -24 -12 -29 -19 -23 -37 19 -62 75 -113
144 -130 116 -30 228 13 277 107 25 48 21 144 -7 194 -28 50 -69 79 -176 123
-100 42 -134 74 -134 127 0 42 36 91 69 93 9 1 26 3 39 4 27 3 93 -28 105 -50
11 -20 26 -19 61 4 l28 19 -37 40 c-50 56 -118 76 -204 61z"/>
<path d="M782 2180 l3 -354 178 -1 c99 0 183 2 187 5 5 3 8 21 7 40 l-2 35
-142 0 c-122 -1 -143 1 -144 15 -5 109 -2 250 6 251 6 1 71 2 145 3 l135 1 0
39 0 40 -142 0 -143 1 -1 25 c-4 145 -3 170 6 173 6 2 72 3 147 3 130 -1 136
0 136 19 0 63 11 60 -193 60 l-185 0 2 -355z"/>
<path d="M1867 2288 c-127 -27 -198 -167 -158 -314 13 -50 69 -116 117 -139
52 -25 149 -23 202 4 36 19 102 85 102 103 0 4 -11 15 -24 24 -24 15 -26 14
-61 -25 -58 -63 -134 -74 -203 -28 -32 22 -68 93 -60 119 4 10 42 13 164 14
87 1 166 2 175 3 13 1 16 9 13 37 -6 62 -25 108 -62 146 -50 53 -125 73 -205
56z m125 -77 c48 -18 84 -85 51 -94 -26 -7 -250 -3 -258 4 -10 11 17 58 44 76
47 31 106 36 163 14z"/>
<path d="M2959 2290 c-42 -12 -73 -30 -96 -58 -23 -27 -23 -27 -24 -4 -1 12
-2 27 -3 34 0 7 -16 12 -36 13 l-35 0 -1 -333 c0 -182 2 -332 5 -333 3 -1 21
-2 39 -3 l32 -2 0 148 0 149 35 -35 c70 -70 195 -66 269 8 108 108 84 331 -43
395 -42 22 -103 31 -142 21z m111 -89 c45 -33 65 -79 64 -151 0 -111 -52 -166
-152 -163 -86 2 -146 75 -143 177 2 50 22 106 47 127 46 38 139 43 184 10z"/>
<path d="M3438 2283 c-125 -36 -180 -222 -108 -364 62 -120 236 -139 322 -35
17 21 18 20 18 -20 0 -40 1 -41 35 -40 22 1 37 7 39 16 3 8 4 109 3 224 l-2
210 -37 2 c-37 1 -38 1 -38 -34 l0 -35 -24 26 c-50 54 -129 73 -208 50z m171
-90 c53 -41 73 -112 55 -201 -11 -56 -82 -112 -134 -107 -8 1 -27 3 -42 3 -37
3 -92 53 -105 97 -15 48 -9 137 12 173 43 73 142 89 214 35z"/>
<path d="M4033 2285 c-101 -30 -154 -101 -161 -216 -4 -62 -1 -85 16 -123 22
-49 66 -92 116 -115 29 -12 131 -17 166 -8 62 16 71 21 76 42 3 13 4 32 2 43
-3 21 -3 21 -45 1 -114 -52 -225 -10 -252 96 -19 77 3 144 64 191 28 21 46 26
92 27 35 0 71 -6 90 -16 18 -10 34 -17 38 -17 3 0 5 18 5 40 0 37 -2 40 -39
50 -60 16 -124 18 -168 5z"/>
<path d="M4482 2287 c-60 -12 -136 -85 -152 -147 -18 -65 -8 -170 20 -215 48
-77 103 -107 196 -107 75 0 131 27 178 85 l31 38 -25 19 c-33 26 -36 25 -56
-9 -33 -56 -108 -80 -178 -56 -41 14 -59 33 -82 83 -29 65 -23 68 158 67 90
-1 168 1 174 3 7 2 9 21 6 50 -13 140 -126 219 -270 189z m128 -75 c33 -13 57
-41 62 -72 l3 -25 -128 0 c-71 0 -133 3 -138 6 -15 9 10 56 39 75 48 32 106
37 162 16z"/>
<path d="M1231 2255 c4 -11 44 -103 87 -205 75 -172 79 -187 66 -210 -29 -52
-102 -224 -98 -231 3 -6 74 -4 78 3 1 2 15 32 31 68 15 36 41 92 56 125 32 70
199 445 205 460 4 9 -43 12 -78 6 -3 0 -12 -18 -19 -38 -6 -21 -15 -42 -18
-48 -4 -5 -20 -41 -36 -80 -15 -38 -31 -74 -35 -80 -4 -5 -10 -22 -14 -37 -3
-16 -10 -28 -14 -28 -4 0 -35 71 -70 159 l-63 158 -43 -1 c-39 -1 -43 -3 -35
-21z"/>
<path d="M4203 1198 l0 -248 23 0 c26 0 25 -6 25 145 0 36 0 130 0 210 l-1
145 -23 -2 -23 -2 -1 -248z"/>
<path d="M5123 1198 l0 -248 23 0 c22 0 24 4 25 53 1 28 0 63 -1 77 -2 22 0
23 16 10 9 -8 44 -43 77 -77 52 -54 65 -63 96 -63 l36 0 -80 81 -80 80 75 70
75 70 -39 -5 c-31 -3 -51 -16 -101 -66 -34 -34 -65 -58 -69 -52 -3 5 -5 63 -5
128 0 207 2 194 -24 192 l-24 -2 0 -248z"/>
<path d="M273 1380 c-11 -25 -30 -67 -43 -95 -168 -368 -157 -337 -119 -333
27 3 34 10 59 68 l29 65 94 3 94 3 23 -58 c30 -75 37 -83 70 -83 l28 0 -60
133 c-85 190 -106 236 -132 292 l-24 50 -19 -45z m90 -234 c2 -8 -131 -11
-140 -3 -2 2 13 39 33 83 l37 79 34 -75 c19 -41 35 -79 36 -84z"/>
<path d="M3458 1308 c-2 -48 -6 -62 -17 -60 -8 2 -20 1 -28 -2 -23 -9 2 -45
27 -39 19 5 20 1 20 -126 l0 -131 25 0 25 0 0 130 c0 72 3 129 8 129 22 -4 41
3 46 16 4 11 -3 17 -24 22 -29 5 -30 7 -30 64 0 56 -1 59 -25 59 -23 0 -24 -4
-27 -62z"/>
<path d="M860 1249 c-13 -6 -33 -17 -42 -26 -17 -15 -18 -15 -18 3 0 14 -8 20
-25 22 l-25 2 0 -150 0 -150 25 0 25 0 0 104 c0 96 2 107 24 133 19 22 32 28
66 28 68 0 80 -24 80 -156 l0 -109 25 0 25 0 0 115 c0 117 -8 153 -40 172 -26
17 -91 23 -120 12z"/>
<path d="M1205 1252 c-83 -19 -133 -139 -91 -220 47 -91 172 -111 246 -41 30
29 31 31 13 44 -15 11 -19 11 -26 -1 -4 -8 -21 -21 -37 -29 -56 -29 -128 -14
-149 32 -23 50 -19 53 87 52 160 -1 146 -5 138 44 -8 49 -26 80 -61 103 -24
16 -84 24 -120 16z m106 -59 c24 -25 34 -63 17 -64 -52 -4 -170 0 -175 5 -4 3
0 18 8 33 27 51 112 66 150 26z"/>
<path d="M2640 1242 c-55 -28 -75 -64 -75 -135 1 -102 49 -157 138 -157 34 0
53 6 76 26 l31 26 0 -26 c0 -21 5 -26 25 -26 l26 0 -3 148 c-3 144 -3 147 -25
150 -18 3 -23 -2 -23 -18 l0 -21 -27 20 c-39 29 -101 34 -143 13z m140 -57
c21 -22 25 -35 25 -85 0 -69 -20 -97 -76 -109 -88 -20 -148 81 -103 174 8 18
25 37 37 43 34 16 88 5 117 -23z"/>
<path d="M3707 1246 c-105 -39 -139 -155 -70 -237 93 -110 279 -53 285 88 4
107 -112 187 -215 149z m135 -65 c47 -52 34 -147 -23 -177 -60 -31 -124 -11
-154 46 -19 37 -19 64 0 104 34 70 126 85 177 27z"/>
<path d="M4455 1253 c-11 -3 -35 -16 -53 -30 -158 -119 11 -349 183 -248 101
59 99 198 -3 258 -33 19 -90 28 -127 20z m103 -52 c29 -16 52 -62 52 -107 0
-54 -53 -104 -110 -104 -57 0 -110 50 -110 104 0 97 85 151 168 107z"/>
<path d="M4827 1245 c-126 -44 -146 -196 -36 -269 76 -51 195 -21 233 58 60
126 -63 258 -197 211z m120 -50 c63 -41 54 -163 -14 -194 -13 -6 -40 -11 -59
-11 -51 0 -104 53 -104 104 0 102 94 155 177 101z"/>
<path d="M1420 1241 c0 -8 15 -43 74 -176 12 -27 29 -65 36 -84 l14 -35 49
105 49 104 44 -89 c24 -49 44 -96 44 -104 0 -10 3 -12 9 -6 8 8 131 279 131
288 0 2 -12 3 -27 2 -24 -1 -30 -10 -59 -81 -18 -44 -35 -89 -38 -100 -6 -18
-8 -17 -21 10 -8 17 -28 61 -44 100 -16 38 -33 71 -38 72 -5 2 -15 -14 -22
-34 -8 -21 -27 -67 -43 -103 l-30 -65 -40 103 c-35 90 -43 102 -64 102 -13 0
-24 -4 -24 -9z"/>
<path d="M2073 1243 c5 -10 21 -48 78 -180 24 -56 48 -101 52 -100 5 1 27 44
50 95 23 50 44 92 47 92 3 0 25 -43 49 -95 24 -52 47 -95 50 -95 4 0 92 190
129 279 5 12 -46 11 -55 -2 -5 -6 -24 -52 -43 -100 -18 -48 -36 -84 -40 -80
-4 4 -24 50 -45 101 -21 50 -41 92 -45 92 -4 0 -24 -42 -45 -92 -21 -51 -41
-97 -45 -101 -4 -4 -24 37 -45 91 -36 91 -40 98 -67 100 -16 1 -28 -1 -25 -5z"/>
<path d="M2920 1233 c5 -10 33 -72 61 -138 44 -105 49 -123 38 -145 -42 -90
-42 -90 -11 -90 27 0 31 8 110 188 45 103 82 190 82 193 0 4 -11 7 -25 7 -22
0 -29 -12 -67 -104 -24 -57 -45 -104 -48 -104 -3 0 -23 46 -45 103 -39 98 -42
102 -73 105 -29 3 -32 1 -22 -15z"/>
</g>
</svg>
