<?xml version="1.0" standalone="no"?>
<!DOCTYPE svg PUBLIC "-//W3C//DTD SVG 20010904//EN"
 "http://www.w3.org/TR/2001/REC-SVG-20010904/DTD/svg10.dtd">
<svg version="1.0" xmlns="http://www.w3.org/2000/svg"
 width="558.000000pt" height="558.000000pt" viewBox="0 0 558.000000 558.000000"
 preserveAspectRatio="xMidYMid meet">
<metadata>
Created by potrace 1.11, written by Peter Selinger 2001-2013
</metadata>
<g transform="translate(0.000000,558.000000) scale(0.100000,-0.100000)"
fill="#000000" stroke="none">
<path d="M2390 4695 c-497 -68 -1037 -349 -1635 -850 -100 -84 -148 -129 -119
-113 5 3 148 88 319 190 377 225 549 319 735 404 590 269 1117 289 1798 69
259 -84 514 -209 1012 -498 85 -49 170 -98 188 -109 71 -43 24 -3 -140 121
-636 476 -1135 716 -1636 785 -135 19 -387 19 -522 1z"/>
<path d="M2519 4005 c-245 -79 -317 -366 -134 -534 74 -68 123 -86 235 -86
112 0 161 18 234 85 163 150 123 411 -78 510 -77 38 -184 49 -257 25z"/>
<path d="M2329 2530 c-79 -41 -112 -116 -89 -201 17 -63 69 -107 178 -152 111
-47 152 -86 152 -148 0 -95 -83 -155 -179 -129 -40 11 -101 68 -101 95 0 19
-14 19 -51 -1 -35 -18 -33 -38 10 -94 59 -76 191 -104 286 -61 141 64 162 272
36 354 -20 12 -76 40 -124 61 -99 44 -127 72 -127 125 0 96 135 130 204 52 23
-26 27 -26 66 -2 l31 19 -33 37 c-18 21 -47 44 -65 51 -48 20 -151 17 -194 -6z"/>
<path d="M780 2180 l0 -350 190 0 190 0 0 35 0 35 -145 0 -145 0 0 140 0 140
145 0 145 0 0 35 0 35 -145 0 -145 0 0 105 0 105 145 0 145 0 0 35 0 35 -190
0 -190 0 0 -350z"/>
<path d="M1823 2274 c-46 -23 -100 -86 -112 -131 -14 -48 -14 -127 -1 -173 13
-49 66 -109 114 -131 54 -24 148 -24 202 0 35 16 104 83 104 102 0 4 -11 14
-25 23 -24 16 -26 15 -61 -24 -65 -72 -161 -75 -222 -6 -30 35 -49 87 -37 106
4 6 71 10 176 10 l169 0 0 43 c-1 77 -56 161 -123 186 -42 16 -147 13 -184 -5z
m187 -73 c29 -20 54 -66 45 -81 -8 -13 -262 -13 -270 0 -9 14 22 68 47 81 60
32 132 32 178 0z"/>
<path d="M2908 2270 c-20 -11 -44 -30 -52 -42 -16 -22 -16 -22 -16 10 0 31 -2
32 -40 32 l-40 0 0 -330 0 -330 40 0 40 0 0 145 0 146 35 -35 c39 -40 79 -51
161 -44 103 9 166 87 172 216 6 113 -31 193 -109 232 -51 26 -141 26 -191 0z
m162 -69 c45 -32 65 -80 65 -151 -1 -111 -48 -163 -148 -164 -53 0 -88 21
-124 74 -40 57 -26 190 23 231 48 40 136 44 184 10z"/>
<path d="M3415 2275 c-42 -22 -90 -78 -103 -123 -28 -91 -6 -217 46 -275 71
-79 229 -75 294 6 17 22 18 22 18 -15 0 -38 0 -38 40 -38 l40 0 0 220 0 220
-40 0 c-38 0 -40 -1 -40 -32 l-1 -33 -18 22 c-36 43 -83 63 -146 63 -33 0 -73
-7 -90 -15z m184 -74 c58 -42 83 -118 67 -205 -14 -75 -105 -128 -184 -107
-76 21 -122 109 -107 206 16 109 140 168 224 106z"/>
<path d="M4010 2279 c-109 -44 -166 -180 -129 -312 13 -49 63 -105 114 -128
47 -22 161 -24 215 -5 31 11 35 17 38 54 3 39 -9 55 -23 32 -3 -5 -30 -17 -59
-25 -75 -22 -129 -9 -178 43 -26 29 -38 52 -43 85 -22 148 121 249 257 181 37
-19 38 -19 38 24 0 36 -2 40 -39 50 -46 14 -156 15 -191 1z"/>
<path d="M4443 2274 c-46 -23 -100 -86 -112 -131 -14 -48 -14 -127 -1 -173 13
-49 66 -109 114 -131 54 -24 148 -24 202 0 35 16 104 83 104 102 0 4 -11 14
-25 23 -24 16 -26 15 -61 -24 -65 -72 -161 -75 -222 -6 -30 35 -49 87 -37 106
4 6 71 10 176 10 l169 0 0 43 c-1 77 -56 161 -123 186 -42 16 -147 13 -184 -5z
m187 -73 c29 -20 54 -66 45 -81 -8 -13 -262 -13 -270 0 -9 14 22 68 47 81 60
32 132 32 178 0z"/>
<path d="M1230 2263 c0 -4 38 -95 84 -201 l84 -194 -59 -126 -59 -127 41 -3
c23 -2 42 -2 43 0 1 2 68 150 148 331 l146 327 -41 0 -42 0 -65 -155 c-36 -85
-67 -155 -70 -155 -3 0 -32 69 -65 153 l-61 152 -42 3 c-23 2 -42 0 -42 -5z"/>
<path d="M4207 1443 c-4 -3 -7 -116 -7 -250 l0 -243 25 0 25 0 0 250 c0 236
-1 250 -18 250 -10 0 -22 -3 -25 -7z"/>
<path d="M5127 1443 c-4 -3 -7 -116 -7 -250 l0 -243 25 0 c25 0 25 2 25 77 l0
78 78 -78 c67 -66 82 -77 112 -77 l35 0 -80 80 -80 81 75 69 75 69 -33 1 c-28
0 -45 -11 -101 -65 -37 -36 -71 -65 -74 -65 -4 0 -7 74 -7 165 0 153 -1 165
-18 165 -10 0 -22 -3 -25 -7z"/>
<path d="M271 1379 c-10 -24 -53 -120 -96 -214 -107 -236 -101 -217 -64 -213
27 3 34 10 59 68 l29 65 93 3 94 3 31 -71 c29 -64 34 -70 61 -70 l30 0 -105
233 c-58 127 -107 234 -109 236 -2 2 -12 -16 -23 -40z m26 -237 c-38 -2 -71
-1 -73 1 -2 2 12 39 32 83 l37 79 37 -80 37 -80 -70 -3z"/>
<path d="M3460 1310 c0 -57 -1 -60 -25 -60 -18 0 -25 -5 -25 -20 0 -15 7 -20
25 -20 l25 0 0 -130 0 -130 25 0 25 0 0 130 0 130 25 0 c18 0 25 5 25 20 0 15
-7 20 -25 20 -24 0 -25 3 -25 60 0 57 -1 60 -25 60 -24 0 -25 -3 -25 -60z"/>
<path d="M866 1250 c-15 -5 -37 -17 -47 -26 -18 -16 -19 -16 -19 4 0 17 -6 22
-25 22 l-25 0 0 -150 0 -150 25 0 25 0 0 106 c0 103 1 106 29 135 38 37 82 39
116 4 24 -23 25 -31 25 -135 l0 -110 25 0 25 0 0 115 c0 117 -8 153 -39 172
-27 17 -82 23 -115 13z"/>
<path d="M1205 1253 c-34 -9 -72 -41 -89 -77 -50 -105 21 -226 131 -226 72 0
148 48 128 80 -8 13 -35 13 -35 0 0 -16 -56 -40 -94 -40 -43 0 -96 41 -96 76
l0 24 121 0 122 0 -7 42 c-15 91 -93 143 -181 121z m113 -68 c41 -48 32 -55
-73 -55 -102 0 -110 5 -79 48 34 49 112 52 152 7z"/>
<path d="M1625 1224 c-9 -22 -28 -67 -42 -102 -14 -34 -28 -64 -32 -66 -4 -3
-24 40 -45 95 -34 86 -42 99 -62 99 -13 0 -24 -3 -24 -7 0 -5 28 -73 62 -152
l63 -143 48 103 c26 56 51 98 56 93 4 -5 25 -48 47 -96 21 -48 42 -88 45 -88
3 0 31 58 62 129 79 178 75 163 41 159 -26 -3 -32 -11 -64 -95 -19 -50 -38
-94 -41 -97 -4 -4 -25 40 -49 96 -23 57 -44 105 -46 107 -1 2 -10 -14 -19 -35z"/>
<path d="M2656 1250 c-84 -26 -120 -133 -76 -226 37 -75 138 -99 199 -48 l31
26 0 -26 c0 -21 5 -26 25 -26 l25 0 0 150 0 150 -25 0 c-18 0 -25 -5 -25 -20
0 -21 0 -21 -27 -1 -34 24 -88 33 -127 21z m116 -59 c31 -27 33 -34 33 -91 0
-55 -3 -64 -28 -86 -30 -26 -83 -32 -118 -14 -27 15 -49 63 -49 107 1 99 92
146 162 84z"/>
<path d="M3705 1245 c-102 -36 -135 -155 -67 -237 70 -83 206 -74 262 17 30
49 25 133 -11 171 -50 53 -120 72 -184 49z m138 -65 c22 -24 27 -40 27 -79 0
-42 -5 -54 -31 -80 -65 -65 -173 -27 -186 65 -15 112 116 177 190 94z"/>
<path d="M4447 1246 c-69 -25 -107 -76 -107 -141 0 -118 134 -194 239 -134 51
29 74 65 79 123 3 41 -1 58 -20 85 -43 64 -122 92 -191 67z m103 -41 c37 -19
60 -62 60 -111 0 -54 -53 -104 -110 -104 -57 0 -110 50 -110 104 0 95 82 151
160 111z"/>
<path d="M4827 1246 c-69 -25 -107 -76 -107 -141 0 -118 134 -194 239 -134 51
29 74 65 79 123 3 41 -1 58 -20 85 -43 64 -122 92 -191 67z m103 -41 c37 -19
60 -62 60 -111 0 -54 -53 -104 -110 -104 -57 0 -110 50 -110 104 0 95 82 151
160 111z"/>
<path d="M2104 1173 c18 -43 48 -111 66 -151 l33 -72 46 100 c25 55 49 100 52
100 3 0 25 -43 48 -95 24 -52 46 -95 50 -95 4 0 105 219 130 282 2 5 -10 8
-25 6 -26 -3 -32 -12 -68 -101 -21 -54 -42 -94 -46 -90 -4 4 -24 50 -45 101
-21 50 -41 92 -44 92 -4 0 -24 -42 -45 -92 -22 -51 -42 -97 -46 -101 -4 -4
-24 37 -46 93 -36 93 -41 100 -66 100 l-27 0 33 -77z"/>
<path d="M2920 1243 c0 -5 25 -67 56 -138 49 -114 54 -132 43 -155 -42 -90
-42 -90 -12 -90 27 0 32 9 111 188 45 103 82 190 82 195 0 4 -11 7 -24 7 -20
0 -29 -14 -67 -105 -24 -58 -46 -105 -49 -105 -3 0 -23 46 -46 103 -36 90 -44
102 -68 105 -14 2 -26 -1 -26 -5z"/>
</g>
</svg>
